<?xml version="1.0" standalone="no"?>
<!DOCTYPE svg PUBLIC "-//W3C//DTD SVG 20010904//EN"
 "http://www.w3.org/TR/2001/REC-SVG-20010904/DTD/svg10.dtd">
<svg version="1.0" xmlns="http://www.w3.org/2000/svg"
 width="800.000000pt" height="800.000000pt" viewBox="0 0 800.000000 800.000000"
 preserveAspectRatio="xMidYMid meet">
<metadata>
Created by potrace 1.14, written by Peter Selinger 2001-2017
</metadata>
<g transform="translate(0.000000,800.000000) scale(0.100000,-0.100000)"
fill="#000000" stroke="none">
<path d="M3228 6545 c-2 -2 -26 -5 -54 -9 -67 -8 -167 -47 -234 -92 -143 -97
-250 -270 -310 -502 -27 -105 -34 -151 -44 -322 -9 -140 -17 -203 -27 -221 -4
-9 -6 -18 -4 -21 16 -16 -68 -194 -128 -273 -30 -40 -156 -166 -194 -195 -49
-38 -80 -58 -100 -64 -12 -4 -27 -13 -33 -21 -7 -8 -18 -15 -25 -15 -7 0 -30
-8 -51 -17 -22 -9 -43 -17 -49 -19 -5 -1 -37 -9 -70 -17 -93 -24 -150 -31
-315 -41 -140 -9 -198 -16 -229 -28 -14 -5 -28 -9 -31 -9 -23 3 -190 -77 -190
-91 0 -4 -4 -8 -10 -8 -29 0 -199 -187 -184 -203 2 -2 -2 -10 -11 -17 -8 -7
-15 -17 -15 -22 0 -6 -6 -24 -14 -41 -19 -42 -33 -93 -40 -142 -14 -93 -5
-246 16 -272 6 -7 8 -13 4 -13 -11 0 35 -105 70 -159 50 -75 110 -137 175
-182 85 -57 219 -116 287 -124 70 -9 146 -15 247 -19 272 -12 403 -50 555
-165 60 -45 230 -221 230 -238 0 -7 4 -13 8 -13 20 0 95 -183 107 -262 8 -52
15 -117 20 -178 17 -219 23 -269 40 -350 2 -9 18 -85 20 -90 6 -28 29 -87 36
-95 5 -5 9 -15 9 -23 0 -8 14 -34 30 -59 17 -24 30 -46 30 -49 0 -3 6 -11 13
-18 6 -7 26 -28 43 -47 154 -169 354 -244 579 -217 131 16 265 81 362 176 93
90 167 207 189 297 4 17 10 35 15 40 4 6 7 13 8 18 0 8 8 54 16 102 3 17 8 50
10 75 3 25 7 65 10 90 4 25 8 82 11 128 2 45 6 95 8 110 14 90 18 112 18 119
3 31 55 159 89 215 58 99 208 246 321 317 59 36 150 74 207 86 9 2 37 8 64 14
26 6 64 13 85 16 20 3 51 8 67 10 17 3 62 7 100 10 39 3 86 8 105 10 19 2 60
7 90 10 87 10 209 43 277 74 56 27 183 135 183 156 0 5 6 16 14 24 23 26 83
152 100 211 51 178 30 346 -60 500 -47 80 -139 173 -220 223 -36 22 -141 69
-151 68 -2 0 -20 6 -41 13 -42 15 -136 29 -197 29 -43 0 -153 -16 -162 -23 -2
-2 -6 -3 -10 -4 -23 -5 -113 -51 -147 -74 -51 -35 -129 -116 -175 -184 -31
-44 -91 -159 -91 -173 0 -2 -5 -16 -12 -32 -6 -15 -12 -33 -13 -39 -2 -6 -10
-36 -18 -65 -8 -30 -18 -74 -22 -99 -4 -25 -9 -54 -11 -65 -2 -11 -6 -56 -9
-100 -16 -261 -39 -376 -93 -465 -45 -73 -89 -138 -109 -160 -13 -14 -23 -28
-23 -32 0 -5 -7 -8 -15 -8 -8 0 -15 -6 -16 -12 0 -7 -20 -29 -45 -48 -24 -19
-50 -40 -57 -45 -55 -46 -235 -131 -318 -151 -19 -4 -38 -9 -44 -11 -134 -41
-506 -51 -675 -18 -14 3 -48 9 -76 14 -122 23 -282 95 -374 169 -124 100 -248
258 -290 369 -25 66 -47 173 -53 254 -2 30 -6 59 -8 65 -7 13 -3 579 5 634 3
25 9 56 12 70 3 14 8 36 10 50 15 85 79 220 143 300 31 40 163 173 205 208 8
6 27 17 41 24 14 6 25 16 25 21 0 6 3 7 7 4 3 -4 20 2 37 12 31 19 166 67 215
76 14 3 37 7 51 10 14 3 45 8 70 11 25 2 59 7 75 9 17 2 63 7 104 11 41 3 84
8 95 10 12 3 39 7 61 8 22 2 51 7 65 10 14 4 37 9 51 11 80 12 221 78 284 132
36 32 95 110 88 116 -3 4 -2 7 4 7 9 0 53 93 82 175 21 60 32 159 26 234 -9
118 -36 195 -104 301 -50 80 -196 219 -228 220 -7 0 -13 5 -13 10 0 6 -6 10
-12 10 -7 0 -25 6 -39 14 -39 20 -120 46 -165 52 -44 6 -162 12 -166 9z"/>
<path d="M4929 6475 c-2 -2 -21 -6 -41 -9 -144 -22 -307 -129 -410 -268 -46
-61 -127 -236 -120 -260 1 -4 -2 -18 -7 -30 -9 -25 -23 -108 -24 -145 -1 -13
-3 -23 -6 -23 -4 0 -7 -30 -8 -68 -7 -252 -27 -374 -80 -491 -45 -99 -86 -152
-204 -270 -107 -106 -241 -181 -394 -220 -74 -19 -178 -34 -315 -46 -84 -7
-151 -15 -195 -21 -22 -4 -47 -7 -55 -8 -76 -10 -220 -61 -220 -77 0 -5 -6 -9
-13 -9 -16 0 -137 -112 -137 -127 0 -6 -3 -13 -7 -15 -23 -10 -93 -143 -114
-218 -7 -25 -14 -52 -17 -60 -2 -8 -6 -62 -8 -120 -3 -85 1 -119 17 -173 20
-69 62 -158 89 -191 43 -53 140 -146 175 -168 54 -34 141 -79 157 -82 7 -1 19
-5 26 -9 6 -5 12 -6 12 -2 0 3 8 1 18 -4 47 -25 216 -34 302 -15 95 20 195 64
238 104 12 12 22 19 22 17 0 -10 69 62 109 113 68 86 115 191 161 355 5 17 13
62 19 100 11 67 14 100 27 260 2 39 7 86 10 105 3 19 5 43 5 52 0 10 5 20 10
23 5 4 7 10 4 15 -13 21 69 206 117 266 41 50 170 177 212 209 40 29 153 94
176 100 3 1 17 7 32 13 28 12 119 39 157 47 11 3 29 7 39 9 152 33 383 35 603
6 95 -13 107 -16 144 -30 17 -6 32 -11 35 -11 33 2 183 -68 261 -122 157 -107
317 -321 345 -462 30 -152 43 -314 45 -580 1 -96 -10 -304 -16 -315 -2 -3 -6
-24 -9 -46 -20 -128 -63 -237 -138 -340 -57 -80 -199 -218 -252 -246 -12 -6
-23 -14 -26 -17 -21 -26 -213 -97 -287 -106 -12 -2 -34 -6 -50 -9 -41 -9 -124
-20 -243 -31 -102 -9 -145 -14 -185 -21 -22 -4 -49 -8 -60 -10 -185 -28 -329
-137 -424 -320 -69 -134 -93 -289 -67 -429 38 -203 192 -385 401 -477 86 -38
138 -50 245 -55 175 -9 318 46 440 167 81 80 87 88 137 181 40 72 70 148 93
238 16 60 37 195 35 226 0 14 2 25 5 25 3 0 6 33 7 73 2 68 6 120 18 212 22
168 148 359 335 507 85 68 222 134 315 152 17 4 41 9 55 11 14 3 40 8 59 11
18 3 41 7 51 9 10 2 66 6 126 10 227 13 288 25 394 73 94 43 214 144 268 228
21 33 64 128 72 159 1 6 6 20 11 32 20 53 28 209 15 274 -12 57 -16 74 -27
108 -70 212 -277 388 -509 434 -41 8 -82 15 -90 15 -221 8 -422 26 -443 39 -4
3 -23 7 -40 10 -18 3 -36 8 -42 13 -5 4 -21 11 -35 15 -35 10 -149 78 -185
110 -263 231 -331 368 -350 705 -5 85 -8 117 -20 219 -27 219 -96 381 -214
499 -66 67 -95 90 -142 116 -74 42 -121 62 -169 72 -19 4 -42 9 -50 12 -20 5
-197 12 -201 7z"/>
</g>
</svg>
